<?xml version="1.0" standalone="no"?>
<!DOCTYPE svg PUBLIC "-//W3C//DTD SVG 20010904//EN"
 "http://www.w3.org/TR/2001/REC-SVG-20010904/DTD/svg10.dtd">
<svg version="1.0" xmlns="http://www.w3.org/2000/svg"
 width="128.000000pt" height="128.000000pt" viewBox="0 0 128.000000 128.000000"
 preserveAspectRatio="xMidYMid meet">
<metadata>
Created by potrace 1.14, written by Peter Selinger 2001-2017
</metadata>
<g transform="translate(0.000000,128.000000) scale(0.100000,-0.100000)"
fill="#000000" stroke="none">
<path d="M1164 1188 c-16 -12 -31 -23 -33 -24 -2 -2 -32 -70 -67 -151 l-64
-148 -54 -2 c-52 -1 -94 -15 -107 -35 -4 -6 -19 -3 -37 6 -55 29 -159 38 -248
23 l-40 -7 2 35 c3 30 -1 37 -22 45 -42 16 -81 11 -111 -13 -22 -18 -38 -23
-75 -21 -26 2 -56 8 -67 14 -15 7 -23 6 -36 -6 -41 -41 -51 -98 -21 -119 10
-8 12 -16 5 -26 -27 -42 4 -83 59 -77 23 3 27 -1 30 -24 3 -27 1 -28 -40 -29
-24 0 -51 -2 -61 -4 -40 -8 -108 -49 -141 -86 l-36 -39 0 -193 0 -192 59 -58
58 -57 582 0 581 0 0 204 0 203 -30 38 c-30 38 -110 99 -167 129 -33 16 -34
22 -13 71 5 11 23 56 40 100 18 44 36 89 41 100 5 11 25 61 45 110 19 50 40
101 46 115 12 28 11 82 -3 117 -11 29 -38 29 -75 1z"/>
</g>
</svg>
